<svg width="152" height="45" viewBox="0 0 152 45" fill="none" xmlns="http://www.w3.org/2000/svg">
<path d="M44.6686 21.4921H46.8987C47.0757 21.4921 47.1819 21.4579 47.2881 21.4236C47.3589 21.3552 47.4297 21.2868 47.4651 21.1499L48.2084 18.7887H52.5978L53.3412 21.1841C53.3766 21.321 53.4474 21.3894 53.5536 21.4236C53.6598 21.4579 53.766 21.4579 53.9076 21.4579H56.173C56.3146 21.4579 56.3854 21.4236 56.4208 21.321C56.4562 21.2525 56.4562 21.1499 56.4208 21.0814L52.4208 9.5149C52.35 9.27535 52.2792 9.10425 52.173 8.96737C52.1023 8.83049 51.9961 8.72782 51.8899 8.65938C51.7837 8.59094 51.6421 8.5225 51.5005 8.5225C51.3589 8.48828 51.1465 8.48828 50.9341 8.48828H49.8014C49.6244 8.48828 49.4474 8.48828 49.3058 8.5225C49.1642 8.55672 49.0226 8.59094 48.9164 8.6936C48.8102 8.76205 48.704 8.86471 48.6332 9.00159C48.5624 9.13847 48.4916 9.30957 48.4208 9.5149L44.4562 21.0814C44.4208 21.1841 44.4208 21.2525 44.4562 21.3552C44.4562 21.4236 44.527 21.4921 44.6686 21.4921ZM49.6244 14.1689L50.3323 11.5339H50.4385L51.1465 14.1689L51.8899 16.5301H48.881L49.6244 14.1689Z" fill="#444444"/>
<path d="M58.5498 21.4911H60.6029C60.7799 21.4911 60.9215 21.4569 60.9569 21.4227C60.9923 21.3885 61.0277 21.2858 61.0277 21.1147V16.2212H62.8684C63.4347 16.2212 63.8949 16.3238 64.2135 16.5634C64.5321 16.8029 64.7799 17.2136 64.9569 17.8296L65.8064 21.1147C65.8772 21.2858 65.9834 21.4227 66.125 21.4227C66.2666 21.4569 66.4082 21.4569 66.5498 21.4569H68.5675C68.7091 21.4569 68.8153 21.3885 68.8507 21.2858C68.8861 21.1832 68.8861 21.0805 68.8507 21.0121L67.8949 17.3162C67.7887 16.8714 67.6471 16.495 67.4701 16.1527C67.2931 15.8105 66.9746 15.5368 66.5498 15.3657L66.5144 15.263C67.0808 14.955 67.5409 14.5444 67.8241 13.9969C68.1427 13.4493 68.2843 12.8676 68.2843 12.2174C68.2843 11.0539 67.8949 10.1642 67.1515 9.47974C66.4082 8.79533 65.3108 8.45312 63.9303 8.45312H59.2577C58.7976 8.45312 58.479 8.55579 58.3374 8.72689C58.1958 8.93221 58.125 9.20598 58.125 9.5824V21.0121C58.125 21.1489 58.1604 21.2516 58.2312 21.32C58.2666 21.4569 58.3728 21.4911 58.5498 21.4911ZM61.0277 11.0197H63.6117C63.9303 11.0197 64.2135 11.0539 64.4259 11.1565C64.6383 11.2592 64.8153 11.3619 64.9215 11.4988C65.0277 11.6356 65.1339 11.8067 65.1693 11.9778C65.2046 12.1489 65.24 12.32 65.24 12.4911C65.24 12.936 65.0985 13.2782 64.8153 13.5862C64.5321 13.86 64.1073 13.9969 63.5409 13.9969H60.9923V11.0197H61.0277Z" fill="#444444"/>
<path d="M70.0193 10.9501H73.4175V21.0794C73.4175 21.2163 73.4529 21.3189 73.5237 21.3874C73.5945 21.4558 73.7007 21.4558 73.8423 21.4558H75.8954C76.0724 21.4558 76.214 21.4216 76.2848 21.3874C76.3556 21.3532 76.3556 21.2163 76.3556 21.0794V10.9501H79.8246C80.0724 10.9501 80.214 10.8132 80.214 10.5737V8.93111C80.214 8.76001 80.1786 8.65735 80.1432 8.62313C80.1078 8.58891 80.0016 8.55469 79.8246 8.55469H70.0547C69.9131 8.55469 69.8069 8.58891 69.7715 8.62313C69.7361 8.65735 69.7007 8.79423 69.7007 8.93111V10.5737C69.6653 10.8132 69.8069 10.9501 70.0193 10.9501Z" fill="#444444"/>
<path d="M52.0008 24.775C51.222 24.4328 50.2662 24.2617 49.1689 24.2617H45.5937C45.1335 24.2617 44.8149 24.3644 44.6733 24.5355C44.5317 24.7066 44.4609 25.0146 44.4609 25.391V36.0678C44.4609 36.4784 44.5317 36.7522 44.6733 36.9233C44.8149 37.0944 45.1335 37.1971 45.5937 37.1971H49.3813C50.514 37.1971 51.4344 37.026 52.2132 36.6496C52.9565 36.2731 53.5937 35.794 54.0539 35.2123C54.514 34.5963 54.8326 33.9119 55.0096 33.1248C55.1866 32.3378 55.2928 31.5165 55.2928 30.661C55.2928 29.8054 55.1866 28.9842 54.9742 28.1971C54.7618 27.41 54.4078 26.7256 53.9123 26.1438C53.4167 25.5621 52.7795 25.1172 52.0008 24.775ZM52.107 32.3035C52.0008 32.8169 51.8238 33.2275 51.576 33.5697C51.3282 33.9119 50.9742 34.2199 50.5494 34.4252C50.1247 34.6305 49.5583 34.7332 48.8857 34.7332H47.3282V26.6914H48.8149C49.4875 26.6914 50.0539 26.794 50.514 26.9994C50.9742 27.2047 51.3282 27.4784 51.576 27.8207C51.8238 28.1629 52.0008 28.5735 52.107 29.0526C52.2132 29.5317 52.2486 30.045 52.2486 30.6267C52.2486 31.2427 52.2132 31.7902 52.107 32.3035Z" fill="#444444"/>
<path d="M58.4419 36.1011C58.725 36.4091 59.079 36.6828 59.5038 36.8882C59.964 37.0935 60.5303 37.1961 61.2383 37.1961H66.902C67.0436 37.1961 67.1498 37.1619 67.2206 37.0935C67.256 37.025 67.2914 36.9224 67.2914 36.7855V35.2114C67.2914 35.0403 67.256 34.9034 67.2206 34.8349C67.1852 34.7665 67.079 34.7665 66.902 34.7665H61.8401C61.4153 34.7665 61.1321 34.698 60.9197 34.5269C60.7073 34.3901 60.6011 34.0821 60.6011 33.6372V31.5155H66.0879C66.2295 31.5155 66.3357 31.4813 66.3711 31.4129C66.4065 31.3444 66.4419 31.2418 66.4419 31.1049V29.6676C66.4419 29.4965 66.4065 29.3939 66.3711 29.3254C66.3357 29.257 66.2295 29.2228 66.0879 29.2228H60.6011V27.7855C60.6011 27.4775 60.6719 27.2037 60.8489 26.9642C61.0259 26.7589 61.3445 26.622 61.8401 26.622H66.6896C66.8312 26.622 66.9374 26.5878 66.9728 26.5536C67.0082 26.4851 67.0436 26.3825 67.0436 26.2456V24.6714C67.0436 24.5003 67.0082 24.3977 66.9728 24.3292C66.9374 24.2608 66.8312 24.2266 66.6896 24.2266H61.2737C60.6365 24.2266 60.0702 24.3292 59.6454 24.5003C59.1852 24.7056 58.8312 24.9452 58.5834 25.2532C58.3003 25.5612 58.1233 25.9376 57.9817 26.3482C57.8401 26.7589 57.8047 27.1695 57.8047 27.6144V33.7399C57.8047 34.1505 57.8401 34.5612 57.9463 34.9718C57.9817 35.4509 58.1941 35.7931 58.4419 36.1011Z" fill="#444444"/>
<path d="M69.9087 37.1991H71.8556C72.0326 37.1991 72.1388 37.1649 72.2096 37.1307C72.2804 37.0965 72.3158 36.9938 72.3158 36.8227V29.9786H72.4219L73.5901 32.4767L74.7936 34.8721C74.9352 35.1801 75.0768 35.4196 75.2184 35.5223C75.3246 35.625 75.5724 35.6934 75.891 35.6934H76.9529C77.2361 35.6934 77.4485 35.625 77.6255 35.5223C77.8025 35.4196 77.9087 35.1801 78.0503 34.8721L79.6432 31.4843L80.4219 29.7733H80.5281V36.8569C80.5281 37.028 80.5635 37.1307 80.6343 37.1649C80.7051 37.1991 80.8113 37.2333 80.9529 37.2333H82.8644C83.0414 37.2333 83.1476 37.1991 83.2184 37.1649C83.2892 37.1307 83.3246 37.028 83.3246 36.8569V25.4615C83.3246 24.9824 83.2184 24.6744 83.006 24.5033C82.7936 24.3322 82.5104 24.2638 82.0857 24.2638H81.1653C80.7405 24.2638 80.4573 24.3322 80.2804 24.4691C80.1034 24.606 79.9264 24.8455 79.7848 25.1535L77.8379 29.3626L76.5281 32.2371H76.4573L75.2538 29.6022L73.1653 25.085C73.0237 24.7771 72.8467 24.5375 72.6697 24.4006C72.4927 24.2638 72.245 24.1953 71.891 24.1953H70.7936C70.3334 24.1953 70.0149 24.298 69.8379 24.5033C69.6609 24.7086 69.5547 25.0166 69.5547 25.4957V36.7885C69.5547 36.9596 69.5901 37.0622 69.6609 37.0965C69.6609 37.1649 69.7671 37.1991 69.9087 37.1991Z" fill="#444444"/>
<path d="M86.7622 36.1011C87.0454 36.4091 87.3993 36.6828 87.8241 36.8882C88.2843 37.0935 88.8507 37.1961 89.5586 37.1961H95.2223C95.3639 37.1961 95.4701 37.1619 95.5409 37.0935C95.5763 37.025 95.6117 36.9224 95.6117 36.7855V35.2114C95.6117 35.0403 95.5763 34.9034 95.5409 34.8349C95.5055 34.7665 95.3993 34.7665 95.2223 34.7665H90.1958C89.771 34.7665 89.4878 34.698 89.2754 34.5269C89.0631 34.3901 88.9569 34.0821 88.9569 33.6372V31.5155H94.4436C94.5852 31.5155 94.6914 31.4813 94.7268 31.4129C94.7622 31.3444 94.7976 31.2418 94.7976 31.1049V29.6676C94.7976 29.4965 94.7622 29.3939 94.7268 29.3254C94.6914 29.257 94.5852 29.2228 94.4436 29.2228H88.9569V27.7855C88.9569 27.4775 89.0277 27.2037 89.2046 26.9642C89.3816 26.7589 89.7002 26.622 90.1958 26.622H95.0454C95.1869 26.622 95.2931 26.5878 95.3285 26.5536C95.3639 26.4851 95.3993 26.3825 95.3993 26.2456V24.6714C95.3993 24.5003 95.3639 24.3977 95.3285 24.3292C95.2931 24.2608 95.1869 24.2266 95.0454 24.2266H89.594C88.9569 24.2266 88.3905 24.3292 87.9657 24.5003C87.5055 24.7056 87.1515 24.9452 86.9038 25.2532C86.6206 25.5612 86.4436 25.9376 86.302 26.3482C86.1604 26.7589 86.125 27.1695 86.125 27.6144V33.7399C86.125 34.1505 86.1604 34.5612 86.2666 34.9718C86.3374 35.4509 86.5144 35.7931 86.7622 36.1011Z" fill="#444444"/>
<path d="M98.2295 37.1991H100.247C100.424 37.1991 100.53 37.1649 100.601 37.1307C100.672 37.0965 100.672 36.9596 100.672 36.8227V29.1915H100.778L102.619 31.9292L105.663 36.412C105.769 36.5831 105.875 36.72 105.982 36.8227C106.088 36.9254 106.159 37.028 106.265 37.0622C106.371 37.1307 106.477 37.1649 106.619 37.1991C106.76 37.2333 106.902 37.2333 107.114 37.2333H107.929C108.424 37.2333 108.743 37.1307 108.92 36.8911C109.097 36.6516 109.168 36.3436 109.168 35.9672V24.6744C109.168 24.4006 109.026 24.298 108.743 24.298H106.725C106.548 24.298 106.442 24.3322 106.371 24.3664C106.3 24.4349 106.3 24.5375 106.3 24.6744V32.3398H106.194L104.566 29.8417L101.309 25.0508C101.203 24.8797 101.097 24.7428 100.991 24.6402C100.92 24.5375 100.814 24.4349 100.707 24.3664C100.601 24.298 100.495 24.2638 100.353 24.2295C100.212 24.1953 100.07 24.1953 99.8578 24.1953H99.0436C98.5834 24.1953 98.2649 24.298 98.0879 24.4691C97.9109 24.6744 97.8047 24.9824 97.8047 25.4615V36.7885C97.8047 36.9254 97.8401 37.028 97.9109 37.0965C97.9463 37.1649 98.0525 37.1991 98.2295 37.1991Z" fill="#444444"/>
<path d="M111.146 26.6572H114.544V36.7864C114.544 36.9233 114.579 37.026 114.65 37.0944C114.721 37.1629 114.827 37.1629 114.969 37.1629H117.022C117.199 37.1629 117.34 37.1286 117.411 37.0944C117.482 37.0602 117.482 36.9233 117.482 36.7864V26.6572H120.951C121.199 26.6572 121.34 26.5203 121.34 26.2807V24.6381C121.34 24.467 121.305 24.3644 121.269 24.3302C121.234 24.2959 121.128 24.2617 120.951 24.2617H111.181C111.039 24.2617 110.933 24.2959 110.898 24.3302C110.862 24.3644 110.827 24.5013 110.827 24.6381V26.2807C110.792 26.5545 110.898 26.6572 111.146 26.6572Z" fill="#444444"/>
<path d="M123.644 37.1971H125.661C125.838 37.1971 125.98 37.1629 126.051 37.1286C126.121 37.0944 126.121 36.9575 126.121 36.8207V24.6381C126.121 24.467 126.086 24.3644 126.051 24.3302C125.98 24.2959 125.874 24.2617 125.661 24.2617H123.644C123.502 24.2617 123.36 24.2959 123.325 24.3302C123.254 24.3986 123.219 24.5013 123.219 24.6381V36.7864C123.219 36.9233 123.254 37.026 123.325 37.0944C123.36 37.1629 123.502 37.1971 123.644 37.1971Z" fill="#444444"/>
<path d="M129.946 36.1011C130.229 36.4091 130.583 36.6828 131.008 36.8882C131.468 37.0935 132.034 37.1961 132.742 37.1961H138.406C138.548 37.1961 138.654 37.1619 138.725 37.0935C138.76 37.025 138.796 36.9224 138.796 36.7855V35.2114C138.796 35.0403 138.76 34.9034 138.725 34.8349C138.689 34.7665 138.583 34.7665 138.406 34.7665H133.38C132.955 34.7665 132.672 34.698 132.459 34.5269C132.247 34.3901 132.141 34.0821 132.141 33.6372V31.5155H137.627C137.769 31.5155 137.875 31.4813 137.911 31.4129C137.946 31.3444 137.981 31.2418 137.981 31.1049V29.6676C137.981 29.4965 137.946 29.3939 137.911 29.3254C137.875 29.257 137.769 29.2228 137.627 29.2228H132.141V27.7855C132.141 27.4775 132.211 27.2037 132.388 26.9642C132.565 26.7589 132.884 26.622 133.38 26.622H138.229C138.371 26.622 138.477 26.5878 138.512 26.5536C138.548 26.4851 138.583 26.3825 138.583 26.2456V24.6714C138.583 24.5003 138.548 24.3977 138.512 24.3292C138.477 24.2608 138.371 24.2266 138.229 24.2266H132.742C132.105 24.2266 131.539 24.3292 131.114 24.5003C130.654 24.7056 130.3 24.9452 130.052 25.2532C129.769 25.5612 129.592 25.9376 129.45 26.3482C129.309 26.7589 129.273 27.1695 129.273 27.6144V33.7399C129.273 34.1505 129.309 34.5612 129.415 34.9718C129.486 35.4509 129.663 35.7931 129.946 36.1011Z" fill="#444444"/>
<path d="M144.103 36.718C144.174 36.8549 144.28 36.9575 144.386 37.026C144.492 37.0944 144.634 37.1629 144.776 37.1629C144.917 37.1971 145.094 37.1971 145.271 37.1971H146.439C146.616 37.1971 146.758 37.1971 146.899 37.1629C147.041 37.1286 147.147 37.0944 147.289 37.026C147.395 36.9575 147.501 36.8549 147.572 36.7522C147.643 36.6153 147.749 36.4442 147.82 36.2389L151.926 24.5697C151.961 24.5013 151.961 24.4328 151.926 24.3644C151.891 24.2959 151.82 24.2617 151.714 24.2617H149.377C149.236 24.2617 149.129 24.2617 149.059 24.2959C148.988 24.3302 148.917 24.3986 148.882 24.5355L146.829 30.9005L145.944 34.1172H145.802L144.811 30.8321L142.793 24.5697C142.758 24.467 142.687 24.3644 142.652 24.3302C142.581 24.2617 142.475 24.2617 142.298 24.2617H139.997C139.891 24.2617 139.82 24.2959 139.784 24.3644C139.749 24.4328 139.749 24.5013 139.784 24.5697L143.855 36.2047C143.926 36.41 143.997 36.5811 144.103 36.718Z" fill="#444444"/>
<path d="M147.86 8.0076C150.161 8.0076 152.002 6.22814 152.002 4.0038C152.002 1.77947 150.161 0 147.86 0C145.559 0 143.719 1.77947 143.719 4.0038C143.719 6.19392 145.595 8.0076 147.86 8.0076ZM146.232 2.08745C146.232 1.95057 146.267 1.84791 146.303 1.77947C146.374 1.71103 146.48 1.67681 146.621 1.67681H148.285C148.781 1.67681 149.17 1.81369 149.418 2.05323C149.701 2.29278 149.807 2.60076 149.807 3.01141C149.807 3.21673 149.736 3.45627 149.63 3.62738C149.524 3.8327 149.382 3.96958 149.17 4.07224V4.10646C149.312 4.1749 149.418 4.27757 149.489 4.38023C149.559 4.48289 149.595 4.61977 149.63 4.79087L149.984 6.09125C149.984 6.12547 149.984 6.1597 149.984 6.19392C149.984 6.22814 149.949 6.26236 149.878 6.26236H149.17C149.135 6.26236 149.064 6.26236 149.028 6.26236C148.958 6.26236 148.922 6.22814 148.922 6.1597L148.639 4.9962C148.568 4.79087 148.498 4.61977 148.391 4.55133C148.285 4.48289 148.108 4.41445 147.931 4.41445H147.259V6.12547C147.259 6.19392 147.259 6.22814 147.223 6.22814C147.188 6.22814 147.152 6.26236 147.082 6.26236H146.374C146.303 6.26236 146.267 6.26236 146.267 6.22814C146.232 6.19392 146.232 6.1597 146.232 6.12547V2.08745Z" fill="#444444"/>
<path d="M148.599 3.45614C148.705 3.35348 148.741 3.2166 148.741 3.07971C148.741 3.01127 148.741 2.97705 148.705 2.90861C148.705 2.84017 148.67 2.80595 148.599 2.73751C148.564 2.66907 148.493 2.63485 148.422 2.60063C148.351 2.56641 148.245 2.56641 148.139 2.56641H147.219V3.62724H148.104C148.351 3.59302 148.493 3.5588 148.599 3.45614Z" fill="#444444"/>
<path d="M32.6358 24.1614L33.1668 21.8002C33.2022 21.5949 34.2641 16.7698 34.4057 14.6823C34.6535 12.0131 34.0517 8.45417 30.2287 6.77736C30.0871 5.99029 29.5916 4.03972 27.5385 2.97888C27.1137 2.73934 26.6889 2.49979 26.2641 2.22603C24.4942 1.16519 22.7243 0.0359151 18.0163 0.0359151C17.9809 0.0359151 17.9455 0.0701356 17.9102 0.0701356C17.8748 0.0701356 17.8394 0.0359151 17.804 0.0359151C13.0606 0.00169455 11.2553 1.13097 9.52077 2.19181C9.09599 2.46557 8.70661 2.70512 8.24643 2.94466C6.19333 4.0055 5.69776 5.95607 5.55617 6.74314C1.69776 8.48839 1.16679 12.0131 1.37918 14.7165C1.55617 16.7698 2.58272 21.5949 2.61811 21.8344L3.14909 24.1956C2.01634 23.3743 1.16679 23.1006 0.600414 23.4085C-0.142949 23.8192 0.0340424 24.9485 0.0340424 25.0853V25.1196C0.0694406 25.3249 1.34378 30.3553 2.12254 32.1348C2.8305 33.7774 4.67121 34.2222 5.34378 34.3249L6.54732 39.5948C6.58272 39.7317 6.65351 39.8344 6.7951 39.9371L13.9809 44.899C14.0871 44.9675 14.1933 45.0017 14.3349 45.0017H17.8394C17.8748 45.0017 17.9102 44.9675 17.9455 44.9675C17.9809 44.9675 18.0163 45.0017 18.0517 45.0017H21.5562C21.6978 45.0017 21.804 44.9675 21.9102 44.899L29.0252 39.9371C29.1668 39.8686 29.2376 39.7317 29.273 39.5948L30.4411 34.2564C31.1137 34.1196 32.9544 33.6747 33.6624 32.0663C34.4411 30.2869 35.6801 25.2907 35.7509 25.0511V25.0169C35.7863 24.88 35.9278 23.7507 35.1845 23.3401C34.6181 23.0321 33.7686 23.3059 32.6358 24.1614ZM2.54732 14.6139C2.26413 11.1234 3.53847 8.79637 6.33493 7.66709C6.54732 7.59865 6.68891 7.39333 6.68891 7.18801C6.68891 7.08534 6.8305 4.99789 8.8482 3.93706C9.34378 3.69751 9.76856 3.42375 10.1933 3.14998C11.8571 2.08915 13.4146 1.13097 17.804 1.13097C17.8394 1.13097 17.8748 1.09675 17.9102 1.09675C17.9455 1.09675 17.9809 1.13097 18.0163 1.13097C22.4057 1.13097 23.9632 2.12337 25.627 3.14998C26.0517 3.42375 26.4765 3.69751 26.9721 3.93706C28.9544 4.99789 29.096 7.08534 29.1314 7.18801C29.1314 7.42755 29.273 7.59865 29.4854 7.66709C32.2818 8.79637 33.5562 11.1234 33.273 14.6139C33.1314 16.6329 32.0694 21.5264 32.034 21.5606L30.0163 30.8344L31.1137 18.4808V18.4466C31.1137 18.3439 31.0783 16.1538 30.0163 13.861C28.6004 10.8154 26.0517 9.13858 22.6889 9.03591H18.0163C17.9809 9.03591 17.9455 9.07014 17.8748 9.07014C17.8394 9.03592 17.804 9.03591 17.7332 9.03591H13.1314C9.73316 9.13858 7.21988 10.8154 5.80395 13.861C4.74201 16.1538 4.70661 18.3439 4.70661 18.4466V18.4808L5.80395 30.8344L3.78626 21.5606C3.75086 21.5264 2.68891 16.5987 2.54732 14.6139ZM2.75971 31.8268C2.05174 30.15 0.812803 25.2564 0.742007 24.9485C0.706609 24.6747 0.706609 24.0587 0.954396 23.9561C1.09599 23.8876 1.59156 23.7507 3.21988 25.0511C3.25528 25.0853 3.29068 25.0853 3.36148 25.0853L5.20218 33.5378C4.49422 33.4009 3.21988 32.9218 2.75971 31.8268ZM28.211 39.15L21.3084 43.8724H17.9809C17.9455 43.8724 17.9102 43.9066 17.8748 43.9066C17.8394 43.9066 17.804 43.8724 17.7686 43.8724H14.4411L7.53847 39.15C7.53847 39.15 6.8659 35.6937 6.8659 35.6253L5.30838 18.4466C5.30838 18.2412 5.41457 16.1538 6.37033 14.1006C7.71546 11.2603 9.98095 9.78877 13.096 9.6861H17.7332C17.7686 9.6861 17.804 9.65189 17.8748 9.65189C17.9102 9.68611 17.9455 9.6861 18.0163 9.6861H22.6535C25.804 9.78877 28.034 11.2945 29.3792 14.1348C30.3349 16.188 30.4411 18.2755 30.4411 18.4808L28.8836 35.6595C28.8836 35.6937 28.211 39.15 28.211 39.15ZM35.0429 24.9142C34.9721 25.2222 33.7332 30.1158 33.0252 31.7926C32.5296 32.9218 31.2907 33.3325 30.6181 33.5378L32.4588 25.0853C32.4942 25.0853 32.565 25.0853 32.6004 25.0511C34.1933 23.785 34.7243 23.8876 34.8659 23.9561C35.0783 24.0929 35.0783 24.6747 35.0429 24.9142Z" fill="#444444"/>
</svg>
