<svg width="36" height="46" viewBox="0 0 36 46" fill="none" xmlns="http://www.w3.org/2000/svg">
<path d="M32.6202 24.1614L33.1512 21.8002C33.1866 21.5949 34.2485 16.7698 34.3901 14.6823C34.6379 12.0131 34.0361 8.45417 30.2131 6.77736C30.0715 5.99029 29.5759 4.03972 27.5228 2.97888C27.0981 2.73934 26.6733 2.49979 26.2485 2.22603C24.4786 1.16519 22.7087 0.0359151 18.0007 0.0359151C17.9653 0.0359151 17.9299 0.0701356 17.8945 0.0701356C17.8591 0.0701356 17.8237 0.0359151 17.7883 0.0359151C13.045 0.00169455 11.2397 1.13097 9.50514 2.19181C9.08036 2.46557 8.69098 2.70512 8.23081 2.94466C6.17771 4.0055 5.68213 5.95607 5.54054 6.74314C1.68213 8.48839 1.15116 12.0131 1.36355 14.7165C1.54054 16.7698 2.56709 21.5949 2.60249 21.8344L3.13346 24.1956C2.00072 23.3743 1.15116 23.1006 0.584789 23.4085C-0.158574 23.8192 0.0184174 24.9485 0.0184174 25.0853V25.1196C0.0538156 25.3249 1.32815 30.3553 2.10691 32.1348C2.81488 33.7774 4.65559 34.2222 5.32815 34.3249L6.53169 39.5948C6.56709 39.7317 6.63789 39.8344 6.77948 39.9371L13.9653 44.899C14.0715 44.9675 14.1777 45.0017 14.3193 45.0017H17.8237C17.8591 45.0017 17.8945 44.9675 17.9299 44.9675C17.9653 44.9675 18.0007 45.0017 18.0361 45.0017H21.5405C21.6821 45.0017 21.7883 44.9675 21.8945 44.899L29.0096 39.9371C29.1512 39.8686 29.222 39.7317 29.2574 39.5948L30.4255 34.2564C31.0981 34.1196 32.9388 33.6747 33.6467 32.0663C34.4255 30.2869 35.6644 25.2907 35.7352 25.0511V25.0169C35.7706 24.88 35.9122 23.7507 35.1689 23.3401C34.6025 23.0321 33.7529 23.3059 32.6202 24.1614ZM2.53169 14.6139C2.24851 11.1234 3.52284 8.79637 6.3193 7.66709C6.53169 7.59865 6.67328 7.39333 6.67328 7.18801C6.67328 7.08534 6.81488 4.99789 8.83258 3.93706C9.32815 3.69751 9.75293 3.42375 10.1777 3.14998C11.8414 2.08915 13.3989 1.13097 17.7883 1.13097C17.8237 1.13097 17.8591 1.09675 17.8945 1.09675C17.9299 1.09675 17.9653 1.13097 18.0007 1.13097C22.3901 1.13097 23.9476 2.12337 25.6113 3.14998C26.0361 3.42375 26.4609 3.69751 26.9565 3.93706C28.9388 4.99789 29.0804 7.08534 29.1158 7.18801C29.1158 7.42755 29.2574 7.59865 29.4697 7.66709C32.2662 8.79637 33.5405 11.1234 33.2574 14.6139C33.1158 16.6329 32.0538 21.5264 32.0184 21.5606L30.0007 30.8344L31.0981 18.4808V18.4466C31.0981 18.3439 31.0627 16.1538 30.0007 13.861C28.5848 10.8154 26.0361 9.13858 22.6733 9.03591H18.0007C17.9653 9.03591 17.9299 9.07014 17.8591 9.07014C17.8237 9.03592 17.7883 9.03591 17.7175 9.03591H13.1158C9.71753 9.13858 7.20426 10.8154 5.78833 13.861C4.72638 16.1538 4.69098 18.3439 4.69098 18.4466V18.4808L5.78833 30.8344L3.77063 21.5606C3.73523 21.5264 2.67328 16.5987 2.53169 14.6139ZM2.74408 31.8268C2.03612 30.15 0.797178 25.2564 0.726382 24.9485C0.690984 24.6747 0.690984 24.0587 0.938771 23.9561C1.08036 23.8876 1.57594 23.7507 3.20426 25.0511C3.23966 25.0853 3.27505 25.0853 3.34585 25.0853L5.18656 33.5378C4.47859 33.4009 3.20426 32.9218 2.74408 31.8268ZM28.1954 39.15L21.2928 43.8724H17.9653C17.9299 43.8724 17.8945 43.9066 17.8591 43.9066C17.8237 43.9066 17.7883 43.8724 17.7529 43.8724H14.4255L7.52284 39.15C7.52284 39.15 6.85028 35.6937 6.85028 35.6253L5.29275 18.4466C5.29275 18.2412 5.39895 16.1538 6.3547 14.1006C7.69983 11.2603 9.96532 9.78877 13.0804 9.6861H17.7175C17.7529 9.6861 17.7883 9.65189 17.8591 9.65189C17.8945 9.68611 17.9299 9.6861 18.0007 9.6861H22.6379C25.7883 9.78877 28.0184 11.2945 29.3636 14.1348C30.3193 16.188 30.4255 18.2755 30.4255 18.4808L28.868 35.6595C28.868 35.6937 28.1954 39.15 28.1954 39.15ZM35.0273 24.9142C34.9565 25.2222 33.7175 30.1158 33.0096 31.7926C32.514 32.9218 31.2751 33.3325 30.6025 33.5378L32.4432 25.0853C32.4786 25.0853 32.5494 25.0853 32.5848 25.0511C34.1777 23.785 34.7087 23.8876 34.8503 23.9561C35.0627 24.0929 35.0627 24.6747 35.0273 24.9142Z" fill="#444444"/>
</svg>
