<svg width="9" height="9" viewBox="0 0 9 9" fill="none" xmlns="http://www.w3.org/2000/svg">
<path d="M4.86035 8.0076C7.16123 8.0076 9.00193 6.22814 9.00193 4.0038C9.00193 1.77947 7.16123 0 4.86035 0C2.55946 0 0.71875 1.77947 0.71875 4.0038C0.71875 6.19392 2.59486 8.0076 4.86035 8.0076ZM3.23203 2.08745C3.23203 1.95057 3.26742 1.84791 3.30282 1.77947C3.37361 1.71103 3.47982 1.67681 3.62141 1.67681H5.28512C5.7807 1.67681 6.17008 1.81369 6.41787 2.05323C6.70105 2.29278 6.80725 2.60076 6.80725 3.01141C6.80725 3.21673 6.73645 3.45627 6.63026 3.62738C6.52406 3.8327 6.38247 3.96958 6.17008 4.07224V4.10646C6.31167 4.1749 6.41786 4.27757 6.48866 4.38023C6.55945 4.48289 6.59486 4.61977 6.63026 4.79087L6.98424 6.09125C6.98424 6.12547 6.98424 6.1597 6.98424 6.19392C6.98424 6.22814 6.94884 6.26236 6.87804 6.26236H6.17008C6.13468 6.26236 6.06388 6.26236 6.02848 6.26236C5.95769 6.26236 5.92229 6.22814 5.92229 6.1597L5.6391 4.9962C5.56831 4.79087 5.49752 4.61977 5.39132 4.55133C5.28513 4.48289 5.10813 4.41445 4.93114 4.41445H4.25857V6.12548C4.25857 6.19392 4.25857 6.22814 4.22317 6.22814C4.18777 6.22814 4.15238 6.26236 4.08158 6.26236H3.37362C3.30282 6.26236 3.26743 6.26236 3.26743 6.22814C3.23203 6.19392 3.23203 6.1597 3.23203 6.12548V2.08745Z" fill="#444444"/>
</svg>
